<svg id="Layer_1" data-name="Layer 1" xmlns="http://www.w3.org/2000/svg" viewBox="0 0 81.6 81.6"><path d="M296.88,372.48V379a6.93,6.93,0,0,0-.43,2.54c-2.2,16.45-15.39,30.65-31.62,34-1.71.35-3.43.63-5.15.94h-7.2c-.22-.23-.51-.19-.78-.22a40.87,40.87,0,0,1-35.44-31.73c-.39-1.82-.66-3.66-1-5.49v-6.48c.26-.21.19-.51.22-.78a40.82,40.82,0,0,1,32.07-35.93c1.94-.4,3.91-.65,5.87-1h5.28c.57.38,1.24.21,1.86.28A40.94,40.94,0,0,1,295.72,366C296.25,368.16,296.39,370.35,296.88,372.48Zm-25.08,3.24A15.72,15.72,0,1,0,256,391.4,15.81,15.81,0,0,0,271.8,375.72Zm21-.53a36.48,36.48,0,0,0-10.23-24.91c-.57-.61-.83-.57-1.34,0q-4.93,5.64-9.95,11.21c-.56.61-.47,1,0,1.55a19.5,19.5,0,0,1,1.34,23.32c-.41.66-.33,1,.23,1.46q5.6,4.89,11.12,9.87c.66.6.95.62,1.5-.13A37.34,37.34,0,0,0,292.83,375.19ZM227.43,353c-.41.08-.53.41-.72.66-10.78,13.93-9.51,34.81,2.85,47.36.49.5.76.61,1.29,0q5-5.73,10.1-11.39c.44-.49.41-.77,0-1.28-5.76-7.29-6.25-15.75-1.39-23.61.31-.51.32-.76-.13-1.16q-5.76-5.07-11.49-10.17A6,6,0,0,0,227.43,353Zm28.33-14.12a36.59,36.59,0,0,0-25,10.2c-.65.61-.57.88.05,1.43q5.59,4.88,11.12,9.86c.6.55.94.55,1.56,0A19.49,19.49,0,0,1,266.8,359c.72.47,1,.29,1.54-.27q4.89-5.59,9.86-11.12c.59-.65.49-.92-.17-1.42A37.13,37.13,0,0,0,255.76,338.89Zm-1,73.47c10.67,0,19.68-3.61,26.59-10.11.59-.55.7-.87,0-1.46-3.77-3.28-7.5-6.61-11.22-10-.55-.49-.87-.5-1.46,0a19.51,19.51,0,0,1-23.32,1.44,1,1,0,0,0-1.56.22q-4.89,5.6-9.87,11.12c-.61.67-.47,1,.18,1.47A36,36,0,0,0,254.79,412.36Z" transform="translate(-215.28 -334.8)"/></svg>